<svg width="162" height="147" viewBox="0 0 162 147" fill="none" xmlns="http://www.w3.org/2000/svg">
<path d="M51.252 98.8379C64.3941 98.8379 75.0479 109.492 75.0479 122.635C75.0478 135.777 64.3941 146.432 51.252 146.432C38.1099 146.432 27.4561 135.777 27.4561 122.635C27.4561 109.492 38.1099 98.838 51.252 98.8379ZM109.852 98.8379C122.994 98.8379 133.647 109.492 133.647 122.635C133.647 135.777 122.994 146.432 109.852 146.432C96.7094 146.432 86.0557 135.777 86.0557 122.635C86.0557 109.492 96.7094 98.8379 109.852 98.8379ZM23.7959 51.2744C36.938 51.2744 47.5917 61.9286 47.5918 75.0713C47.5918 88.214 36.9381 98.8682 23.7959 98.8682C10.6539 98.868 0 88.2139 0 75.0713C4.9476e-05 61.9287 10.6539 51.2746 23.7959 51.2744ZM137.284 51.2744C150.426 51.2744 161.08 61.9286 161.08 75.0713C161.08 88.214 150.426 98.8682 137.284 98.8682C124.142 98.8681 113.488 88.214 113.488 75.0713C113.488 61.9287 124.142 51.2745 137.284 51.2744ZM51.252 0C64.3941 0 75.0478 10.6542 75.0479 23.7969C75.0479 36.9396 64.3941 47.5938 51.252 47.5938C38.1099 47.5936 27.4561 36.9395 27.4561 23.7969C27.4561 10.6543 38.1099 0.000139173 51.252 0ZM109.852 0C122.994 3.91723e-05 133.647 10.6542 133.647 23.7969C133.647 36.9395 122.994 47.5937 109.852 47.5938C96.7094 47.5938 86.0557 36.9396 86.0557 23.7969C86.0557 10.6542 96.7094 0 109.852 0Z" fill="black"/>
</svg>
