<svg width="18" height="16" viewBox="0 0 18 16" fill="none" xmlns="http://www.w3.org/2000/svg">
<path d="M5.60059 10.7998C7.03639 10.8 8.2002 11.9645 8.2002 13.4004C8.20011 14.8363 7.03634 15.9998 5.60059 16C4.16465 16 3.00009 14.8364 3 13.4004C3 11.9643 4.1646 10.7998 5.60059 10.7998ZM12.0029 10.7998C13.4389 10.7998 14.6035 11.9643 14.6035 13.4004C14.6034 14.8364 13.4389 16 12.0029 16C10.567 16 9.40341 14.8364 9.40332 13.4004C9.40332 11.9643 10.567 10.7998 12.0029 10.7998ZM2.59961 5.60254C4.0356 5.60254 5.2002 6.76706 5.2002 8.20312C5.2 9.63903 4.03548 10.8027 2.59961 10.8027C1.16396 10.8025 0.000192582 9.63887 0 8.20312C0 6.76722 1.16384 5.6028 2.59961 5.60254ZM15 5.60254C16.436 5.60254 17.6006 6.76706 17.6006 8.20312C17.6004 9.63903 16.4359 10.8027 15 10.8027C13.5643 10.8025 12.4006 9.63887 12.4004 8.20312C12.4004 6.76722 13.5642 5.6028 15 5.60254ZM5.60059 0C7.03639 0.000213623 8.2002 1.16465 8.2002 2.60059C8.2 4.03636 7.03628 5.19998 5.60059 5.2002C4.16471 5.2002 3.00019 4.03649 3 2.60059C3 1.16452 4.1646 0 5.60059 0ZM12.0029 0C13.4389 0 14.6035 1.16452 14.6035 2.60059C14.6033 4.03649 13.4388 5.2002 12.0029 5.2002C10.5671 5.20015 9.40351 4.03646 9.40332 2.60059C9.40332 1.16454 10.567 4.21359e-05 12.0029 0Z" fill="#8D8D8D"/>
</svg>
